<svg xmlns="http://www.w3.org/2000/svg" version="1.1" xmlns:xlink="http://www.w3.org/1999/xlink" xmlns:svgjs="http://svgjs.dev/svgjs" width="2160" height="500" preserveAspectRatio="none" viewBox="0 0 2160 500"><g mask="url(&quot;#SvgjsMask1002&quot;)" fill="none"><rect width="2160" height="500" x="0" y="0" fill="url(&quot;#SvgjsLinearGradient1003&quot;)"></rect><path d="M1831.09 29.38L1831.33 29.38L1831.33 29.62L1831.09 29.62z" fill="#e73635"></path><path d="M895.99 108.21L918.59 108.21L918.59 130.81L895.99 130.81z" stroke="#e73635"></path><path d="M1162.57 260.57L1196.23 260.57L1196.23 294.23L1162.57 294.23z" fill="#037b0b"></path><path d="M597.42 171.32L604.97 171.32L604.97 182.4L597.42 182.4z" stroke="#d3b714"></path><path d="M449.16 316.18L455.26 316.18L455.26 357.5L449.16 357.5z" stroke="#e73635"></path><path d="M456.13 191.07L460.95 191.07L460.95 195.89L456.13 195.89z" stroke="#d3b714"></path><path d="M1819.63 139.96L1831.68 139.96L1831.68 152.01L1819.63 152.01z" stroke="#e73635"></path><path d="M36.99 463.18 a17.73 17.73 0 1 0 35.46 0 a17.73 17.73 0 1 0 -35.46 0z" fill="#d3b714"></path><path d="M568.47 235.94 a17.86 17.86 0 1 0 35.72 0 a17.86 17.86 0 1 0 -35.72 0z" stroke="#037b0b"></path><path d="M1662.77 20.93L1696.1 20.93L1696.1 54.26L1662.77 54.26z" stroke="#d3b714"></path><path d="M1857.06 69.83a30.34 30.34 0 1 0-9.37-59.95z" fill="#e73635"></path><path d="M984.57 438.26L1017.36 438.26L1017.36 471.05L984.57 471.05z" fill="#e73635"></path><path d="M465.62 479.28 a24.75 24.75 0 1 0 49.5 0 a24.75 24.75 0 1 0 -49.5 0z" stroke="#e73635"></path><path d="M796.96 373.47L807.24 373.47L807.24 420.4L796.96 420.4z" stroke="#d3b714"></path><path d="M1430.72 423.31L1445.73 423.31L1445.73 462.8L1430.72 462.8z" fill="#037b0b"></path><path d="M2093.65 357.88 a45.38 45.38 0 1 0 90.76 0 a45.38 45.38 0 1 0 -90.76 0z" fill="#e73635"></path><path d="M592.14 489.73 a42.55 42.55 0 1 0 85.1 0 a42.55 42.55 0 1 0 -85.1 0z" fill="#e73635"></path><path d="M549.03 314.87L580.03 314.87L580.03 345.87L549.03 345.87z" fill="#e73635"></path><path d="M457.21 123.69 a4.73 4.73 0 1 0 9.46 0 a4.73 4.73 0 1 0 -9.46 0z" stroke="#037b0b"></path><path d="M1478.37 304.5 a0.03 0.03 0 1 0 0.06 0 a0.03 0.03 0 1 0 -0.06 0z" stroke="#e73635"></path><path d="M166.56 242.75a9.8 9.8 0 1 0 14.76 12.9z" stroke="#037b0b"></path><path d="M1733.66 206.78L1742.77 206.78L1742.77 244.47L1733.66 244.47z" fill="#d3b714"></path><path d="M858.19 126.31a4.06 4.06 0 1 0 7.92-1.8z" stroke="#e73635"></path><path d="M648.9 392.34L657.47 392.34L657.47 400.91L648.9 400.91z" fill="#d3b714"></path><path d="M55.95 458.63 a26.19 26.19 0 1 0 52.38 0 a26.19 26.19 0 1 0 -52.38 0z" fill="#037b0b"></path><path d="M803.45 355.01L853.15 355.01L853.15 371.45L803.45 371.45z" stroke="#e73635"></path><path d="M1484.4 339.61a39.99 39.99 0 1 0-13.09-78.9z" fill="#d3b714"></path><path d="M2146.08 211.64 a1.32 1.32 0 1 0 2.64 0 a1.32 1.32 0 1 0 -2.64 0z" stroke="#e73635"></path><path d="M2034.86 499.7L2072.23 499.7L2072.23 537.07L2034.86 537.07z" stroke="#d3b714"></path><path d="M1464.39 281.51L1494.67 281.51L1494.67 311.79L1464.39 311.79z" stroke="#d3b714"></path><path d="M1567.77 341.18L1612.03 341.18L1612.03 385.44L1567.77 385.44z" fill="#d3b714"></path><path d="M449.8 377.49a41.66 41.66 0 1 0-76.19-33.72z" fill="#037b0b"></path><path d="M504 375.32L553.63 375.32L553.63 413.5L504 413.5z" fill="#e73635"></path><path d="M243.61 471.42L275.62 471.42L275.62 502.81L243.61 502.81z" stroke="#e73635"></path><path d="M1494.04 16.92L1541.98 16.92L1541.98 31.54L1494.04 31.54z" stroke="#037b0b"></path><path d="M1127.02 256.28L1139.3 256.28L1139.3 279.55L1127.02 279.55z" stroke="#d3b714"></path><path d="M1453.21 260.45L1471.76 260.45L1471.76 269.9L1453.21 269.9z" stroke="#d3b714"></path><path d="M1906.11 293.67 a10.37 10.37 0 1 0 20.74 0 a10.37 10.37 0 1 0 -20.74 0z" fill="#d3b714"></path><path d="M1131.05 30.63L1148.9 30.63L1148.9 77.03L1131.05 77.03z" fill="#037b0b"></path><path d="M1867.52 92.66L1878.87 92.66L1878.87 110.18L1867.52 110.18z" fill="#037b0b"></path><path d="M608.73 325.01 a4.32 4.32 0 1 0 8.64 0 a4.32 4.32 0 1 0 -8.64 0z" stroke="#037b0b"></path><path d="M56.75 185.82a43.96 43.96 0 1 0 82.84 29.44z" stroke="#d3b714"></path><path d="M531.94 108.99 a33.88 33.88 0 1 0 67.76 0 a33.88 33.88 0 1 0 -67.76 0z" stroke="#e73635"></path><path d="M1432.72 346.25a18.55 18.55 0 1 0-15.1-33.88z" stroke="#d3b714"></path><path d="M1724.17 269.51a28.41 28.41 0 1 0-56.73-3.16z" fill="#d3b714"></path><path d="M2027.55 452.26a7.38 7.38 0 1 0 10.8-10.05z" stroke="#e73635"></path><path d="M548.22 153.74L560.9 153.74L560.9 194.3L548.22 194.3z" fill="#d3b714"></path><path d="M1302.23 392.71 a18.26 18.26 0 1 0 36.52 0 a18.26 18.26 0 1 0 -36.52 0z" fill="#e73635"></path><path d="M1918.97 223.68L1967.48 223.68L1967.48 272.19L1918.97 272.19z" fill="#d3b714"></path><path d="M255.3 156.56 a41.23 41.23 0 1 0 82.46 0 a41.23 41.23 0 1 0 -82.46 0z" fill="#d3b714"></path><path d="M260.75 241.64L270.86 241.64L270.86 245.43L260.75 245.43z" fill="#037b0b"></path><path d="M2114.76 457.81a7.03 7.03 0 1 0 7.22-12.07z" fill="#037b0b"></path><path d="M1299.46 383.34L1304.59 383.34L1304.59 388.47L1299.46 388.47z" fill="#e73635"></path><path d="M1209.29 409.12 a10.66 10.66 0 1 0 21.32 0 a10.66 10.66 0 1 0 -21.32 0z" fill="#037b0b"></path></g><defs><mask id="SvgjsMask1002"><rect width="2160" height="500" fill="#ffffff"></rect></mask><linearGradient x1="19.21%" y1="-83%" x2="80.79%" y2="183%" gradientUnits="userSpaceOnUse" id="SvgjsLinearGradient1003"><stop stop-color="#0e2a47" offset="0"></stop><stop stop-color="#00459e" offset="1"></stop></linearGradient></defs></svg>